<svg width="178" height="124" viewBox="0 0 178 124" fill="none" xmlns="http://www.w3.org/2000/svg">
<rect width="178" height="124" rx="6" fill="black"/>
<path d="M45.5393 63.3327V33H53.1182V82.4129H47.0678L27.579 44.5134V82.4129H20V33H29.8081L45.5393 63.3327Z" fill="white"/>
<path d="M66.4522 61.1474H78.2346C78.2346 59.4514 77.948 57.9837 77.3748 56.7443C76.2709 54.4612 74.7423 53.3196 72.7892 53.3196C71.6216 53.3196 70.5919 53.5914 69.7003 54.135C68.8299 54.6569 68.1718 55.3418 67.7259 56.1898C66.8768 57.7771 66.4522 59.4297 66.4522 61.1474ZM61.1023 75.7593C60.4442 74.259 59.9771 72.726 59.7011 71.1605C59.4464 69.5732 59.319 67.5836 59.319 65.1918C59.319 62.7782 59.595 60.4407 60.147 58.1794C60.6989 55.918 61.4101 54.1242 62.2805 52.7978C63.151 51.4497 64.2018 50.3625 65.4331 49.5362C67.5349 48.1229 70.0081 47.4162 72.8529 47.4162C75.5278 47.4162 77.8631 48.2316 79.8587 49.8624C83.5951 52.95 85.3784 58.6795 85.2086 67.0509H66.1337C66.1337 71.4431 67.2695 74.4003 69.5411 75.9224C70.7087 76.7052 71.9294 77.0965 73.2032 77.0965C74.4982 77.0965 75.5703 76.9335 76.4195 76.6073C77.2687 76.2811 77.948 75.9115 78.4575 75.4984C78.967 75.0852 79.4341 74.6069 79.8587 74.0633C80.4319 73.3022 80.8246 72.6499 81.0369 72.1063L85.3678 74.9765C83.7968 77.7815 82.1196 79.7819 80.3364 80.9778C78.362 82.3259 76.186 83 73.8082 83C71.4517 83 69.4349 82.6847 67.7578 82.0541C66.1019 81.4236 64.7432 80.5864 63.6817 79.5427C62.6414 78.499 61.7816 77.2379 61.1023 75.7593Z" fill="white"/>
<path d="M104.083 82.4129H97.1413L88.0338 48.0033H95.1033L100.963 70.3125L105.93 48.0033H111.79L116.758 70.2472L122.585 48.0033H129.686L120.515 82.4129H113.573L108.86 61.1474L104.083 82.4129Z" fill="white"/>
<path d="M132.926 75.4984L137.639 72.5629C138.382 73.6501 139.072 74.5199 139.708 75.1722C141.216 76.6943 143.116 77.4553 145.409 77.4553C147.256 77.4553 148.572 77.0639 149.357 76.2811C150.079 75.5636 150.44 74.4764 150.44 73.0196C150.44 71.367 149.92 70.1276 148.88 69.3014C147.946 68.5838 147.022 68.0946 146.109 67.8337L143.116 66.953C139.655 65.9528 137.161 64.6047 135.632 62.9087C134.083 61.1909 133.308 58.9187 133.308 56.092C133.308 53.6784 134.274 51.6562 136.206 50.0254C138.244 48.2859 141.163 47.4162 144.963 47.4162C148.381 47.4162 151.321 48.6121 153.784 51.0039C154.845 52.0259 155.514 52.8848 155.79 53.5806L151.841 56.7769C150.355 54.9287 148.869 53.7871 147.383 53.3522C146.619 53.1131 145.61 52.9935 144.358 52.9935C143.126 52.9935 142.065 53.3196 141.173 53.9719C140.303 54.6243 139.868 55.581 139.868 56.8421C139.868 58.299 140.494 59.4297 141.746 60.2342C142.85 60.9517 143.965 61.4845 145.09 61.8324L147.956 62.6477C152.457 63.9524 155.249 66.1594 156.331 69.2688C156.777 70.5299 157 72.0302 157 73.7697C157 75.4875 156.469 77.0639 155.408 78.499C154.368 79.9341 152.988 81.0431 151.268 81.8258C149.548 82.6086 147.808 83 146.045 83C144.305 83 142.861 82.8913 141.715 82.6738C140.589 82.4564 139.496 82.0759 138.435 81.5323C136.375 80.4668 134.539 78.4555 132.926 75.4984Z" fill="white"/>
</svg>
